<?xml version="1.0" encoding="UTF-8"?>
<svg width="140px" height="81px" viewBox="0 0 140 81" version="1.1" xmlns="http://www.w3.org/2000/svg" xmlns:xlink="http://www.w3.org/1999/xlink">
    <!-- Generator: Sketch 48.1 (47250) - http://www.bohemiancoding.com/sketch -->
    <title>Group 4</title>
    <desc>Created with Sketch.</desc>
    <defs></defs>
    <g id="Website" stroke="none" stroke-width="1" fill="none" fill-rule="evenodd">
        <g id="Group-4" fill="#FFFFFF">
            <polygon id="Path-8-Copy-11" fill-rule="nonzero" points="54.4326778 2.51813472 57.8214826 0 57.8214826 20.9766299 54.4326778 20.9766299"></polygon>
            <polygon id="Path-8-Copy-12" fill-rule="nonzero" points="77.0953101 0 80.484115 2.0984456 80.484115 4.83098455 77.0953101 4.83098455"></polygon>
            <polygon id="Path-8-Copy-13" fill-rule="nonzero" points="77.5189107 23.0829016 80.9077156 23.0829016 80.9077156 26.2421066 77.5189107 26.2421066"></polygon>
            <polygon id="Path-8-Copy-14" fill-rule="nonzero" points="83.0257186 36.7227979 86.4145234 36.7227979 86.4145234 47.8445596 83.0257186 47.8445596"></polygon>
            <polygon id="Path-8-Copy-15" fill-rule="nonzero" points="83.124531 31.6865285 83.124531 22.873057 86.5133359 22.873057 86.5133359 35.0440415 78.4996263 35.0440415 63.5226059 51.6084521 60.9984871 49.3681762 76.9856782 31.6865285"></polygon>
            <path d="M86.4146671,16.7943682 L83.0257237,16.7807613 C83.044804,12.116235 80.9820607,10.0725389 76.2481092,10.0725389 L59.3040847,10.0725389 L59.3040847,6.71502591 L76.2481092,6.71502591 C82.8559537,6.71502591 86.4412185,10.2671847 86.4146671,16.7943682 Z" id="Path-8-Copy-16" fill-rule="nonzero"></path>
            <path d="M80.9132527,16.7873834 L77.5244478,16.7877462 C77.5243117,15.5395052 77.0163237,15.1088083 75.2588112,15.1088083 L59.3040847,15.1088083 L59.3040847,11.7512953 L75.2588112,11.7512953 C78.7808626,11.7512953 80.9129006,13.5589404 80.9132527,16.7873834 Z" id="Path-8-Copy-17" fill-rule="nonzero"></path>
            <polygon id="Path-8-Copy-18" fill-rule="nonzero" points="86.4145291 17.8367876 86.4145291 21.1943005 59.7276853 21.1943005 59.7276853 17.8367876"></polygon>
            <polygon id="Path-8-Copy-19" fill-rule="nonzero" points="65.4394342 41.7962837 63.1638893 44.2842498 54.4326778 36.4453027 54.4326778 22.873057 57.8214826 22.873057 57.8214826 34.9568297"></polygon>
            <polygon id="Path-8-Copy-20" fill-rule="nonzero" points="69.0468986 48.4354956 73.494705 52.4588142 75.7796033 49.9792771 71.3317969 45.9559585"></polygon>
            <polygon id="Path-8-Copy-21" fill-rule="nonzero" points="72.2239032 44.0287598 76.6717095 48.0520784 78.9566078 45.5725414 74.5088015 41.5492228"></polygon>
            <polygon id="Path-9-Copy" fill-rule="nonzero" points="63.1164902 32.4273877 69.2498278 37.8621564 66.9907169 40.3647806 59.7276853 33.9289868 59.7276853 22.873057 63.1164902 22.873057"></polygon>
            <path d="M20.3383359,61.2746114 L20.3383359,64.5679119 L17.9721029,64.5679119 L17.9721029,80.8111399 L13.7748563,80.8111399 L6.36629349,67.3867539 L6.36629349,77.5178394 L9.07055976,77.5178394 L9.07055976,80.8111399 L0,80.8111399 L0,77.5178394 L2.47891074,77.5178394 L2.47891074,64.5679119 L0,64.5679119 L0,61.2746114 L6.9296823,61.2746114 L14.0847201,74.2524482 L14.0847201,64.5679119 L11.3804539,64.5679119 L11.3804539,61.2746114 L20.3383359,61.2746114 Z M28.8789713,80.8111399 C26.2028744,80.8111399 24.9352496,79.5552202 24.9352496,76.9038342 L24.9352496,65.1819171 C24.9352496,62.5305311 26.2028744,61.2746114 28.8789713,61.2746114 L36.0058396,61.2746114 C38.6819365,61.2746114 39.9495613,62.5305311 39.9495613,65.1819171 L39.9495613,76.9038342 C39.9495613,79.5552202 38.6819365,80.8111399 36.0058396,80.8111399 L28.8789713,80.8111399 Z M28.991649,76.5689223 C28.991649,76.9875622 29.1324962,77.1271088 29.5550378,77.1271088 L35.3297731,77.1271088 C35.7523147,77.1271088 35.8931619,76.9875622 35.8931619,76.5689223 L35.8931619,65.516829 C35.8931619,65.0981891 35.7523147,64.9586425 35.3297731,64.9586425 L29.5550378,64.9586425 C29.1324962,64.9586425 28.991649,65.0981891 28.991649,65.516829 L28.991649,76.5689223 Z M60.7157337,77.5178394 L63.2509834,77.5178394 L63.2509834,80.8111399 L57.983298,80.8111399 L54.2931014,73.2756218 L51.1944629,73.2756218 L51.1944629,77.5178394 L54.0677458,77.5178394 L54.0677458,80.8111399 L44.6591528,80.8111399 L44.6591528,77.5178394 L47.1380635,77.5178394 L47.1380635,64.5679119 L44.6591528,64.5679119 L44.6591528,61.2746114 L57.3354009,61.2746114 C60.0114977,61.2746114 61.2791225,62.5305311 61.2791225,65.1819171 L61.2791225,69.1450415 C61.2791225,71.3777876 60.3777005,72.6057979 58.5185174,72.9686192 L60.7157337,77.5178394 Z M51.1944629,69.7590466 L56.6593343,69.7590466 C57.0818759,69.7590466 57.2227231,69.6195 57.2227231,69.2008601 L57.2227231,65.4051917 C57.2227231,64.9865518 57.0818759,64.8470052 56.6593343,64.8470052 L51.1944629,64.8470052 L51.1944629,69.7590466 Z M91.2848714,64.5679119 L88.8059607,64.5679119 L88.8059607,77.5178394 L91.2848714,77.5178394 L91.2848714,80.8111399 L82.2706505,80.8111399 L82.2706505,77.5178394 L84.8059002,77.5178394 L84.8059002,68.251943 L80.4959758,77.6015674 L77.5100151,77.6015674 L73.2000908,68.251943 L73.2000908,77.5178394 L75.7353404,77.5178394 L75.7353404,80.8111399 L66.8337973,80.8111399 L66.8337973,77.5178394 L69.312708,77.5178394 L69.312708,64.5679119 L66.8337973,64.5679119 L66.8337973,61.2746114 L73.8198185,61.2746114 L79.1156732,72.7174352 L84.411528,61.2746114 L91.2848714,61.2746114 L91.2848714,64.5679119 Z M113.797549,77.5178394 L115.938427,77.5178394 L115.938427,80.8111399 L107.431256,80.8111399 L107.431256,77.5178394 L109.515794,77.5178394 L108.69888,74.9501813 L102.107231,74.9501813 L101.290318,77.5178394 L103.318517,77.5178394 L103.318517,80.8111399 L94.9803631,80.8111399 L94.9803631,77.5178394 L97.1212405,77.5178394 L101.600182,64.5679119 L99.3466263,64.5679119 L99.3466263,61.2746114 L108.191831,61.2746114 L113.797549,77.5178394 Z M103.17767,71.6010622 L107.628442,71.6010622 L105.403056,64.7353679 L103.17767,71.6010622 Z M139.972254,61.2746114 L139.972254,64.5679119 L137.606021,64.5679119 L137.606021,80.8111399 L133.408775,80.8111399 L126.000212,67.3867539 L126.000212,77.5178394 L128.704478,77.5178394 L128.704478,80.8111399 L119.633918,80.8111399 L119.633918,77.5178394 L122.112829,77.5178394 L122.112829,64.5679119 L119.633918,64.5679119 L119.633918,61.2746114 L126.563601,61.2746114 L133.718638,74.2524482 L133.718638,64.5679119 L131.014372,64.5679119 L131.014372,61.2746114 L139.972254,61.2746114 Z" id="NORMAN-Copy"></path>
            <polygon id="Path-8-Copy-22" fill-rule="nonzero" points="55.0680787 43.713592 59.7139634 47.9764069 61.9532432 45.4563482 55.0680787 39.4507772"></polygon>
        </g>
    </g>
</svg>